<svg width="35" height="36" viewBox="0 0 35 36" fill="none" xmlns="http://www.w3.org/2000/svg">
<g clip-path="url(#clip0)">
<path d="M18.0294 21.8C18.0294 19.105 16.7475 17.1129 14.0992 16.3663C16.0315 15.4461 17.0392 14.0519 17.0392 11.8834C17.0392 7.60753 13.8425 6.56482 10.1544 6.56482H0V28.0329H10.4388C14.3529 28.0329 18.0294 26.1619 18.0294 21.8ZM4.73375 10.2296H9.17583C10.8835 10.2296 12.4206 10.7079 12.4206 12.6825C12.4206 14.5054 11.2248 15.239 9.53313 15.239H4.73375V10.2296ZM4.73229 24.3871V18.475H9.89188C11.9758 18.475 13.2942 19.3413 13.2942 21.5404C13.2942 23.709 11.7206 24.3871 9.79417 24.3871H4.73229Z" fill="white"/>
<path d="M27.4107 28.4398C31.1352 28.4398 33.5473 26.7671 34.7081 23.2117H30.9282C30.5213 24.5388 28.8442 25.2402 27.5434 25.2402C25.0336 25.2402 23.7152 23.7746 23.7152 21.2838H34.9634C35.3192 16.2992 32.5425 12.0511 27.4092 12.0511C22.6565 12.0511 19.4307 15.6123 19.4307 20.2775C19.4307 25.1192 22.4873 28.4398 27.4107 28.4398ZM27.2765 15.2769C29.4275 15.2769 30.5096 16.5369 30.6904 18.5975H23.7211C23.8625 16.5544 25.2232 15.2769 27.2765 15.2769Z" fill="white"/>
<path d="M22.8477 7.69208H31.5802V9.80665H22.8477V7.69208Z" fill="white"/>
</g>
<defs>
<clipPath id="clip0">
<rect width="35" height="35" fill="white" transform="translate(0 0.00231934)"/>
</clipPath>
</defs>
</svg>
