<svg width="61" height="62" viewBox="0 0 61 62" fill="none" xmlns="http://www.w3.org/2000/svg">
<g clip-path="url(#clip0)">
<path d="M31.8038 21.6383H27.5433L22.5108 29.187L17.4497 21.6383H13.1606L20.395 31.932L13.3895 41.9398H17.6786L22.5108 34.677L27.3146 41.9398H31.575L24.5696 31.932L31.8038 21.6383Z" fill="black"/>
<path d="M0 0.00231934V61.0023H61V0.00231934H0ZM57.4258 57.4281H3.57422V3.57654H57.4258V57.4281Z" fill="black"/>
<path d="M47.2724 37.5364V21.0664H43.4409V29.5873C42.945 28.7295 41.3896 26.6994 38.3799 26.6994C34.827 26.6994 31.689 29.7875 31.689 34.4483C31.689 38.5592 34.41 42.2258 38.8089 42.2258C41.8116 42.2258 43.4598 40.2913 44.0127 39.3378C44.0127 39.3378 43.7623 42.14 46.5289 42.14C46.948 42.14 47.4913 42.073 48.1588 41.9398V38.6801C47.8345 38.6613 47.2724 37.9367 47.2724 37.5364ZM43.441 36.4498C43.3074 36.8121 42.2138 38.9661 39.8097 38.9661C37.2694 38.9661 35.6636 36.7175 35.6636 34.5341C35.6636 32.5476 36.9717 29.9591 39.581 29.9591C41.9159 29.9591 43.2883 32.4565 43.441 32.8756V36.4498Z" fill="black"/>
</g>
<defs>
<clipPath id="clip0">
<rect width="61" height="61" fill="white" transform="translate(0 0.00231934)"/>
</clipPath>
</defs>
</svg>
