<svg width="28" height="29" viewBox="0 0 28 29" fill="none" xmlns="http://www.w3.org/2000/svg">
<g clip-path="url(#clip0)">
<path d="M27.993 28.0023V28.0011H28V17.7321C28 12.7085 26.9185 8.83862 21.0455 8.83862C18.2221 8.83862 16.3275 10.388 15.554 11.8568H15.4723V9.30762H9.90381V28.0011H15.7021V18.7448C15.7021 16.3076 16.1641 13.951 19.1823 13.951C22.1561 13.951 22.2005 16.7323 22.2005 18.9011V28.0023H27.993Z" fill="white"/>
<path d="M0.461914 9.30884H6.26725V28.0023H0.461914V9.30884Z" fill="white"/>
<path d="M3.36233 0.00231934C1.50617 0.00231934 0 1.50849 0 3.36465C0 5.22082 1.50617 6.75849 3.36233 6.75849C5.2185 6.75849 6.72467 5.22082 6.72467 3.36465C6.7235 1.50849 5.21733 0.00231934 3.36233 0.00231934V0.00231934Z" fill="white"/>
</g>
<defs>
<clipPath id="clip0">
<rect width="28" height="28" fill="white" transform="translate(0 0.00231934)"/>
</clipPath>
</defs>
</svg>
