<svg width="35" height="35" viewBox="0 0 35 35" fill="none" xmlns="http://www.w3.org/2000/svg">
<path d="M32.2368 23.0448C30.0779 23.0448 27.9632 22.7077 25.9571 22.0445C24.979 21.7074 23.87 21.9671 23.2253 22.6229L19.2519 25.6237C14.6945 23.1922 11.7766 20.2761 9.37454 15.7482L12.2942 11.8687C13.0293 11.1319 13.2927 10.0579 12.9777 9.0503C12.3126 7.03501 11.9737 4.91843 11.9737 2.76316C11.9737 1.23971 10.734 0 9.21056 0H2.76316C1.23971 0 0 1.23971 0 2.76316C0 20.5376 14.4624 35 32.2368 35C33.7603 35 35 33.7603 35 32.2368V25.8079C35 24.2845 33.7603 23.0448 32.2368 23.0448ZM33.1579 32.2368C33.1579 32.7453 32.7435 33.1579 32.2368 33.1579C15.4773 33.1579 1.84208 19.5227 1.84208 2.76316C1.84208 2.25474 2.25655 1.84208 2.76316 1.84208H9.21056C9.71717 1.84208 10.1316 2.25474 10.1316 2.76316C10.1316 5.11556 10.5001 7.42556 11.2221 9.6158C11.329 9.96024 11.2424 10.3158 10.9053 10.6658L7.55267 15.1052C7.34085 15.3871 7.3077 15.7647 7.46796 16.0779C10.1998 21.4439 13.5175 24.7634 18.9222 27.5321C19.2335 27.6942 19.6148 27.661 19.8967 27.4474L24.4319 24.01C24.6788 23.7669 25.0417 23.6822 25.3696 23.7908C27.5728 24.5185 29.8828 24.8868 32.237 24.8868C32.7436 24.8868 33.1581 25.2995 33.1581 25.8079V32.2368H33.1579Z" fill="white"/>
</svg>
