<svg width="35" height="36" viewBox="0 0 35 36" fill="none" xmlns="http://www.w3.org/2000/svg">
<g clip-path="url(#clip0)">
<path d="M32.2073 6.90459L35 4.23292V3.64813H25.3254L18.4304 20.8098L10.586 3.64813H0.441875V4.23292L3.70417 8.16022C4.02208 8.45042 4.18833 8.8748 4.14604 9.30209V24.7356C4.24667 25.2913 4.06583 25.8629 3.675 26.2669L0 30.7206V31.2981H10.4198V30.7133L6.74479 26.2669C6.34667 25.8615 6.15854 25.3 6.23875 24.7356V11.386L15.3854 31.3054H16.4485L24.3133 11.386V27.2542C24.3133 27.6727 24.3133 27.7588 24.0392 28.0329L21.21 30.7702V31.3565H34.9358V30.7717L32.2088 28.1015C31.9696 27.9206 31.8456 27.6173 31.8967 27.3227V7.68334C31.8456 7.3873 31.9681 7.08397 32.2073 6.90459Z" fill="white"/>
</g>
<defs>
<clipPath id="clip0">
<rect width="35" height="35" fill="white" transform="translate(0 0.0022583)"/>
</clipPath>
</defs>
</svg>
