<svg width="68" height="56" viewBox="0 0 68 56" fill="none" xmlns="http://www.w3.org/2000/svg">
<g clip-path="url(#clip0)">
<path d="M67.8591 42.5093C67.7039 42.2178 67.4361 42.001 67.1174 41.9109L63.1536 40.7864C62.5788 40.624 61.9555 40.9108 61.7114 41.4654C60.9767 43.1362 59.2893 45.9729 57.8862 46.4707C57.571 46.5833 57.1479 46.6555 57.001 46.5003C56.9501 46.4446 55.7864 45.0712 58.9041 38.0147C63.1191 28.4764 60.8476 20.1088 57.8874 17.2134C54.8787 14.2675 47.4038 13.6697 43.3499 16.0503C41.8865 16.9094 40.6067 17.8941 39.571 18.7982L40.071 16.0859C40.1374 15.728 40.039 15.3594 39.8032 15.0821C39.5686 14.8043 39.206 14.6497 38.8576 14.6526L24.0771 14.8986C23.5404 14.9074 23.0723 15.2688 22.9289 15.786L20.6656 23.9078C20.5637 24.2733 20.6384 24.6656 20.8682 24.9677C21.097 25.2699 21.4548 25.447 21.834 25.447H26.6795C24.5642 31.6799 21.565 40.3231 20.9038 41.7154C19.8597 42.533 16.248 45.1329 14.8331 45.6009C13.8519 45.9268 13.4454 45.9694 13.2617 45.9517C13.2251 45.7928 13.1741 45.3177 13.4538 44.2228C14.4599 40.2851 20.4962 16.1605 20.4962 16.1605C20.5874 15.7979 20.5057 15.414 20.2757 15.1195C20.0459 14.825 19.6928 14.6526 19.3194 14.6526H2.72001C2.13829 14.6526 1.63811 15.0662 1.52793 15.6379L0.0218187 23.5132C-0.00900246 23.6756 -0.00657559 23.8355 0.0253377 23.9878C0.008835 24.0671 0.000462314 24.1495 0.000462314 24.2336C0.000462314 24.9037 0.543231 25.447 1.21389 25.447H5.68843C4.49881 30.1347 1.23646 43.0816 1.01489 45.0143C0.80512 46.8285 0.800357 52.8753 9.53731 54.4679C14.1825 55.3211 18.0313 53.1728 20.4689 51.1915L20.1371 53.0626C20.0743 53.4157 20.1715 53.7794 20.4013 54.0544C20.6325 54.3294 20.9725 54.4881 21.3315 54.4881H30.8873C31.4407 54.4881 31.9254 54.1124 32.0629 53.5768C32.1114 53.3849 37.0161 34.3224 38.7793 30.2083C39.8151 27.7939 42.5773 25.4209 45.0693 24.806C45.8727 24.6087 47.002 24.5109 47.8197 25.1757C50.1103 27.0349 49.1469 30.1218 47.8636 33.3875C46.7887 36.1224 43.5028 45.4255 46.3183 50.3538C47.751 52.8624 50.7443 54.6231 54.1297 54.9491C54.4983 54.9846 54.8645 55.0023 55.2271 55.0023C58.3412 55.0023 61.2161 53.7073 63.2436 51.3551C66.6124 47.4044 67.8864 43.6172 67.9385 43.4585C68.0428 43.1445 68.0131 42.8021 67.8591 42.5093ZM61.4009 49.7755C59.0215 52.5377 55.97 52.6834 54.362 52.5341C51.7882 52.2853 49.4585 50.957 48.4253 49.1498C46.611 45.9753 48.206 39.1535 50.1221 34.2762C51.2764 31.3387 53.2079 26.424 49.3508 23.2917C48.4821 22.5865 47.4145 22.2287 46.2081 22.2287C45.6618 22.2287 45.0859 22.3021 44.4875 22.4497C41.2335 23.2531 37.8943 26.1141 36.5493 29.2531C34.9211 33.0498 30.9656 48.1367 29.9476 52.0613H22.7796L23.5309 47.8263C23.6293 47.2752 23.3366 46.729 22.8234 46.5038C22.3163 46.281 21.7119 46.4339 21.3707 46.8794C21.321 46.9434 16.4079 53.2498 9.97342 52.0814C3.72497 50.9426 3.18936 47.3392 3.42513 45.2916C3.62656 43.5414 7.1022 29.7141 8.4246 24.5334C8.51706 24.1709 8.4377 23.7851 8.20776 23.4894C7.97793 23.1932 7.62361 23.0202 7.24914 23.0202H2.58738L3.72376 17.0794H17.7647C16.4293 22.4176 11.9559 40.2828 11.1028 43.6232C10.7768 44.8958 10.4747 46.7088 11.5944 47.7516C12.7676 48.8465 14.6103 48.2338 15.5974 47.9044C17.8217 47.1674 22.5604 43.5 22.6043 43.4644C22.9289 43.1967 23.3744 42.8304 29.5211 24.6218C29.6467 24.2515 29.585 23.8437 29.3575 23.5262C29.1288 23.2086 28.7627 23.0202 28.3716 23.0202H23.4314L25.0228 17.3099L37.4154 17.1037L36.471 22.2304C36.3703 22.7762 36.6536 23.3207 37.1583 23.5523C37.6608 23.7839 38.2604 23.6441 38.6087 23.2122C38.6325 23.1819 41.0545 20.2107 44.5787 18.1429C47.9857 16.1422 54.1085 16.91 56.1905 18.9482C58.2559 20.9691 60.5216 28.349 56.6834 37.0337C54.1274 42.8198 53.6498 46.4552 55.2212 48.1498C56.0401 49.0302 57.308 49.2518 58.6992 48.7577C60.8795 47.9839 62.6593 44.9918 63.4746 43.3992L65.155 43.8768C64.5613 45.198 63.3763 47.459 61.4009 49.7755Z" fill="black"/>
<path d="M14.6092 12.1363C17.9543 12.1363 20.6763 9.41446 20.6763 6.06933C20.6763 2.72425 17.9543 0.00231934 14.6092 0.00231934C11.2639 0.00231934 8.54199 2.72425 8.54199 6.06933C8.54199 9.41446 11.2639 12.1363 14.6092 12.1363ZM14.6092 2.42912C16.6165 2.42912 18.2495 4.06203 18.2495 6.06933C18.2495 8.07669 16.6165 9.70953 14.6092 9.70953C12.6017 9.70953 10.9689 8.07669 10.9689 6.06933C10.9689 4.06203 12.6017 2.42912 14.6092 2.42912Z" fill="black"/>
</g>
<defs>
<clipPath id="clip0">
<rect width="68" height="55" fill="white" transform="translate(0 0.00231934)"/>
</clipPath>
</defs>
</svg>
