<svg width="61" height="62" viewBox="0 0 61 62" fill="none" xmlns="http://www.w3.org/2000/svg">
<path d="M59.0939 19.0637H1.90909C0.85689 19.0637 0.00292969 19.9177 0.00292969 20.9699C0.00292969 22.0221 0.85689 22.876 1.90909 22.876H59.0939C60.1461 22.876 61.0001 22.0221 61.0001 20.9699C61.0001 19.9177 60.1461 19.0637 59.0939 19.0637Z" fill="black"/>
<path d="M47.1767 19.7042L31.9274 2.54872C31.2031 1.73289 29.7963 1.73289 29.0758 2.54872L13.8265 19.7042C13.1288 20.4895 13.1975 21.698 13.9866 22.3957C14.7719 23.0933 15.9766 23.0247 16.6781 22.2355L30.5016 6.68128L44.3251 22.2355C44.7025 22.6587 45.2248 22.876 45.7509 22.876C46.2007 22.876 46.6544 22.7159 47.0166 22.3957C47.8019 21.6942 47.8782 20.4895 47.1767 19.7042Z" fill="black"/>
<path d="M60.5234 19.7156L47.1803 4.46631C46.8753 4.11557 46.4483 3.88683 45.9871 3.82965L30.7378 1.92349C30.5891 1.90824 30.4518 1.90824 30.3108 1.91967L11.2492 3.82584C10.6621 3.88302 10.136 4.21088 9.82337 4.71029L0.292569 19.9596C-0.138223 20.642 -0.0886627 21.5188 0.410751 22.1517L29.0032 58.3687C29.3653 58.8262 29.9181 59.0931 30.5014 59.0931C31.0847 59.0931 31.6375 58.8262 31.9958 58.3687L60.5882 22.1517C61.1563 21.4311 61.1296 20.4056 60.5234 19.7156ZM30.5014 54.1104L4.23451 20.8402L12.5606 7.51998L30.4785 5.72818L44.7938 7.51998L56.6158 21.0308L30.5014 54.1104Z" fill="black"/>
<path d="M32.2592 56.4473L17.0099 20.2303C16.5982 19.2581 15.4736 18.8121 14.5129 19.2124C13.5407 19.6203 13.0871 20.7373 13.495 21.7094L28.7442 57.9265C29.053 58.6546 29.7583 59.0931 30.5017 59.0931C30.7457 59.0931 31.0011 59.0435 31.2413 58.9444C32.2096 58.5365 32.6671 57.4195 32.2592 56.4473Z" fill="black"/>
<path d="M46.4904 19.2124C45.5106 18.8006 44.4012 19.2619 43.9933 20.2303L28.744 56.4473C28.3361 57.4194 28.7897 58.5365 29.7619 58.9444C30.0021 59.0435 30.2537 59.0931 30.5015 59.0931C31.2449 59.0931 31.9502 58.6546 32.259 57.9265L47.5083 21.7094C47.9162 20.7373 47.4587 19.6203 46.4904 19.2124Z" fill="black"/>
<path d="M17.101 20.5086L13.2887 5.25928C13.0332 4.23758 11.9925 3.61236 10.9784 3.87159C9.95668 4.12702 9.33527 5.16397 9.59451 6.18186L13.4068 21.4311C13.6203 22.3004 14.398 22.876 15.252 22.876C15.4045 22.876 15.5608 22.857 15.7133 22.8188C16.735 22.5634 17.3564 21.5303 17.101 20.5086Z" fill="black"/>
<path d="M45.7509 3.81441C44.6987 3.81441 43.8447 4.66837 43.8447 5.72057V20.9699C43.8447 22.0221 44.6987 22.876 45.7509 22.876C46.8031 22.876 47.657 22.0221 47.657 20.9699V5.72057C47.657 4.66837 46.8031 3.81441 45.7509 3.81441Z" fill="black"/>
</svg>
