<svg width="35" height="35" viewBox="0 0 35 35" fill="none" xmlns="http://www.w3.org/2000/svg">
<path d="M22.778 2.33878L22.6135 0L0.652832 1.54431L2.72528 31.0153L5.73385 30.8037V35H27.7487V32.5886L31.1848 32.9586L34.3478 3.5847L22.778 2.33878ZM5.73385 28.7464L4.62848 28.8241L2.84396 3.4475L20.7103 2.19105L20.9399 5.45624H5.73385V28.7464ZM25.6966 32.9478H7.78606V7.50846H25.6966V32.9478ZM29.3642 30.6983L27.7488 30.5244V5.45624H22.9973L22.9242 4.41854L32.0878 5.40524L29.3642 30.6983Z" fill="white"/>
<path d="M23.4338 20.2854H10.0493V22.3376H23.4338V20.2854Z" fill="white"/>
<path d="M23.4338 23.9355H10.0493V25.9878H23.4338V23.9355Z" fill="white"/>
<path d="M23.4338 27.5857H10.0493V29.6379H23.4338V27.5857Z" fill="white"/>
<path d="M13.7665 15.6743C12.8616 15.6743 12.2521 15.0463 12.2521 14.0583C12.2521 13.0702 12.8615 12.4423 13.7665 12.4423C14.3483 12.4423 14.8008 12.7193 15.1794 13.1995L16.5553 11.9714C15.9181 11.1404 14.9208 10.6786 13.6556 10.6786C11.5779 10.6786 10.0542 12.073 10.0542 14.0584C10.0542 16.0438 11.5779 17.4382 13.6556 17.4381C14.9208 17.4381 15.9181 16.9764 16.5553 16.1453L15.1794 14.9171C14.8008 15.3972 14.3483 15.6743 13.7665 15.6743Z" fill="white"/>
<path d="M21.9483 10.8263L20.3692 14.6032L18.8271 10.8263H16.4814L19.2149 17.2904H21.3573L24.0906 10.8263H21.9483Z" fill="white"/>
</svg>
