<svg width="61" height="61" viewBox="0 0 61 61" fill="none" xmlns="http://www.w3.org/2000/svg">
<g clip-path="url(#clip0)">
<path d="M30.4998 30.0023C30.4998 27.3502 31.571 24.8066 33.4776 22.9313C35.3842 21.0559 37.9701 20.0023 40.6665 20.0023C43.3629 20.0023 45.9488 21.0559 47.8554 22.9313C49.762 24.8066 50.8332 27.3502 50.8332 30.0023C50.8332 32.6545 49.762 35.198 47.8554 37.0734C45.9488 38.9487 43.3629 40.0023 40.6665 40.0023C37.9701 40.0023 35.3842 38.9487 33.4776 37.0734C31.571 35.198 30.4998 32.6545 30.4998 30.0023ZM10.1665 50.0023C10.1665 47.3502 11.2376 44.8066 13.1443 42.9313C15.0509 41.0559 17.6368 40.0023 20.3332 40.0023H30.4998V50.0023C30.4998 52.6545 29.4287 55.198 27.5221 57.0734C25.6155 58.9487 23.0295 60.0023 20.3332 60.0023C17.6368 60.0023 15.0509 58.9487 13.1443 57.0734C11.2376 55.198 10.1665 52.6545 10.1665 50.0023ZM30.4998 0.00231934V20.0023H40.6665C43.3629 20.0023 45.9488 18.9488 47.8554 17.0734C49.762 15.198 50.8332 12.6545 50.8332 10.0023C50.8332 7.35015 49.762 4.80662 47.8554 2.93125C45.9488 1.05589 43.3629 0.00231934 40.6665 0.00231934L30.4998 0.00231934ZM10.1665 10.0023C10.1665 12.6545 11.2376 15.198 13.1443 17.0734C15.0509 18.9488 17.6368 20.0023 20.3332 20.0023H30.4998V0.00231934H20.3332C17.6368 0.00231934 15.0509 1.05589 13.1443 2.93125C11.2376 4.80662 10.1665 7.35015 10.1665 10.0023ZM10.1665 30.0023C10.1665 32.6545 11.2376 35.198 13.1443 37.0734C15.0509 38.9487 17.6368 40.0023 20.3332 40.0023H30.4998V20.0023H20.3332C17.6368 20.0023 15.0509 21.0559 13.1443 22.9313C11.2376 24.8066 10.1665 27.3502 10.1665 30.0023Z" fill="black"/>
</g>
<defs>
<clipPath id="clip0">
<rect width="61" height="60" fill="white" transform="translate(0 0.00231934)"/>
</clipPath>
</defs>
</svg>
