<svg width="61" height="62" viewBox="0 0 61 62" fill="none" xmlns="http://www.w3.org/2000/svg">
<g clip-path="url(#clip0)">
<path d="M23.5161 21.6383H19.5703V41.9398H23.5161V21.6383Z" fill="black"/>
<path d="M0 0.00231934V61.0023H61V0.00231934H0ZM57.4258 57.4281H3.57422V3.57654H57.4258V57.4281Z" fill="black"/>
<path d="M41.873 37.5364V21.0664H38.0415V29.5873C37.5456 28.7295 35.9902 26.6994 32.9805 26.6994C29.4276 26.6994 26.2896 29.7875 26.2896 34.4483C26.2896 38.5592 29.0106 42.2258 33.4095 42.2258C36.4122 42.2258 38.0604 40.2913 38.6133 39.3378C38.6133 39.3378 38.3629 42.14 41.1295 42.14C41.5486 42.14 42.0919 42.073 42.7594 41.9398V38.6801C42.4351 38.6613 41.873 37.9367 41.873 37.5364ZM38.0415 36.4498C37.9079 36.8121 36.8143 38.9661 34.4102 38.9661C31.87 38.9661 30.2641 36.7175 30.2641 34.534C30.2641 32.5476 31.5721 29.959 34.1814 29.959C36.5163 29.959 37.8887 32.4565 38.0415 32.8756V36.4498Z" fill="black"/>
</g>
<defs>
<clipPath id="clip0">
<rect width="61" height="61" fill="white" transform="translate(0 0.00231934)"/>
</clipPath>
</defs>
</svg>
